<svg width="21" height="21" viewBox="0 0 21 21" fill="none" xmlns="http://www.w3.org/2000/svg">
<rect width="21" height="21" rx="10.5" fill="#E64B32"/>
<path d="M7.07898 8.5C7.07898 7.99333 7.22565 7.59667 7.51898 7.31C7.81898 7.02333 8.20232 6.88 8.66898 6.88C9.13565 6.88 9.51565 7.02333 9.80898 7.31C10.109 7.59667 10.259 7.99333 10.259 8.5C10.259 9.01333 10.109 9.41333 9.80898 9.7C9.51565 9.98667 9.13565 10.13 8.66898 10.13C8.20232 10.13 7.81898 9.98667 7.51898 9.7C7.22565 9.41333 7.07898 9.01333 7.07898 8.5ZM13.499 7L9.56898 14H8.20898L12.129 7H13.499ZM8.65898 7.72C8.29232 7.72 8.10898 7.98 8.10898 8.5C8.10898 9.02667 8.29232 9.29 8.65898 9.29C8.83898 9.29 8.97898 9.22667 9.07898 9.1C9.17898 8.96667 9.22898 8.76667 9.22898 8.5C9.22898 7.98 9.03898 7.72 8.65898 7.72ZM11.469 12.49C11.469 11.9767 11.6157 11.58 11.909 11.3C12.209 11.0133 12.5923 10.87 13.059 10.87C13.5257 10.87 13.9023 11.0133 14.189 11.3C14.4823 11.58 14.629 11.9767 14.629 12.49C14.629 13.0033 14.4823 13.4033 14.189 13.69C13.9023 13.9767 13.5257 14.12 13.059 14.12C12.5857 14.12 12.2023 13.9767 11.909 13.69C11.6157 13.4033 11.469 13.0033 11.469 12.49ZM13.049 11.71C12.669 11.71 12.479 11.97 12.479 12.49C12.479 13.0167 12.669 13.28 13.049 13.28C13.4223 13.28 13.609 13.0167 13.609 12.49C13.609 11.97 13.4223 11.71 13.049 11.71Z" fill="white"/>
</svg>
