<svg width="25" height="25" viewBox="0 0 25 25" fill="currentColor" xmlns="http://www.w3.org/2000/svg">
<path d="M12.5 2.08334C6.75625 2.08334 2.08333 6.75626 2.08333 12.5C2.08333 18.2438 6.75625 22.9167 12.5 22.9167C18.2437 22.9167 22.9167 18.2438 22.9167 12.5C22.9167 6.75626 18.2437 2.08334 12.5 2.08334ZM4.16666 12.5C4.16666 11.5636 4.32916 10.6646 4.61562 9.82397L6.25 11.4583L8.33333 13.5417V15.625L10.4167 17.7083L11.4583 18.75V20.7615C7.3552 20.2458 4.16666 16.7417 4.16666 12.5ZM19.0937 17.5761C18.4135 17.0281 17.3823 16.6667 16.6667 16.6667V15.625C16.6667 15.0725 16.4472 14.5426 16.0565 14.1519C15.6658 13.7612 15.1359 13.5417 14.5833 13.5417H10.4167V10.4167C10.9692 10.4167 11.4991 10.1972 11.8898 9.80648C12.2805 9.41578 12.5 8.88588 12.5 8.33334V7.29168H13.5417C14.0942 7.29168 14.6241 7.07218 15.0148 6.68148C15.4055 6.29078 15.625 5.76088 15.625 5.20834V4.78022C18.675 6.01876 20.8333 9.01043 20.8333 12.5C20.8331 14.3382 20.2211 16.1241 19.0937 17.5761V17.5761Z" fill="currentColor"/>
</svg>
