<svg width="20" height="20" viewBox="0 0 20 20" fill="currentColor" xmlns="http://www.w3.org/2000/svg">
<path d="M2.70371 5.06426C3.22654 4.69883 4.01468 4.76891 4.48412 5.15659L3.94571 4.37401C3.51243 3.75606 3.66761 3.08751 4.28611 2.65367C4.90461 2.22149 6.65721 3.38341 6.65721 3.38341C6.22003 2.75934 6.3018 1.96842 6.92586 1.53069C7.54992 1.09462 8.41092 1.24536 8.8481 1.87053L14.6438 10.0579L13.9051 17.219L7.7407 14.9708L2.36387 6.99873C1.9228 6.37078 2.0752 5.50477 2.70371 5.06426Z" fill="white"/>
<path d="M1.49898 9.61904C1.49898 9.61904 0.869355 8.7013 1.78765 8.07223C2.70483 7.44317 3.3339 8.36035 3.3339 8.36035L6.25453 12.6198C6.3552 12.4518 6.46533 12.286 6.58825 12.1225L2.53463 6.21173C2.53463 6.21173 1.90556 5.29455 2.8233 4.66548C3.74048 4.03641 4.36955 4.9536 4.36955 4.9536L8.18233 10.514C8.32416 10.3983 8.46933 10.282 8.61895 10.168L4.1988 3.72105C4.1988 3.72105 3.56973 2.80387 4.48747 2.1748C5.40465 1.54573 6.03371 2.46291 6.03371 2.46291L10.4539 8.90876C10.6163 8.8092 10.777 8.72299 10.9383 8.63177L6.80684 2.60697C6.80684 2.60697 6.17777 1.68979 7.09495 1.06072C8.01213 0.431653 8.6412 1.34883 8.6412 1.34883L13.0096 7.7196L13.6737 8.68851C10.9216 10.5763 10.6597 14.1276 12.2321 16.4209C12.5463 16.8797 13.0052 16.5655 13.0052 16.5655C11.118 13.8128 11.6942 10.7198 14.4469 8.83256L13.6354 4.77116C13.6354 4.77116 13.3322 3.70102 14.4018 3.39734C15.4719 3.0942 15.7756 4.16434 15.7756 4.16434L16.7128 6.94759C17.0844 8.0511 17.4798 9.15071 18.0032 10.1908C19.4811 13.1276 18.5984 16.7774 15.8118 18.6891C12.7721 20.7732 8.61673 19.9984 6.53207 16.9593L1.49898 9.61904Z" fill="currentColor"/>
<path d="M6.67446 17.7985C4.44964 17.7985 2.20146 15.5504 2.20146 13.3256C2.20146 13.018 1.9762 12.7693 1.66862 12.7693C1.36103 12.7693 1.08905 13.018 1.08905 13.3256C1.08905 16.6628 3.33723 18.911 6.67446 18.911C6.98204 18.911 7.23066 18.639 7.23066 18.3314C7.23066 18.0238 6.98204 17.7985 6.67446 17.7985Z" fill="currentColor"/>
<path d="M3.89343 18.8876C2.22482 18.8876 1.11241 17.7752 1.11241 16.1066C1.11241 15.799 0.863786 15.5504 0.556204 15.5504C0.248623 15.5504 0 15.799 0 16.1066C0 18.3314 1.66861 20 3.89343 20C4.20101 20 4.44964 19.7514 4.44964 19.4438C4.44964 19.1362 4.20101 18.8876 3.89343 18.8876ZM13.3489 1.08905C13.0419 1.08905 12.7927 1.33823 12.7927 1.64525C12.7927 1.95228 13.0419 2.20146 13.3489 2.20146C15.5737 2.20146 17.7985 4.19768 17.7985 6.65109C17.7985 6.95812 18.0477 7.2073 18.3547 7.2073C18.6618 7.2073 18.911 6.95812 18.911 6.65109C18.911 3.58418 16.6861 1.08905 13.3489 1.08905Z" fill="currentColor"/>
<path d="M16.1299 0C15.8229 0 15.5737 0.225819 15.5737 0.532844C15.5737 0.839869 15.8229 1.11241 16.1299 1.11241C17.7985 1.11241 18.8876 2.34996 18.8876 3.87007C18.8876 4.1771 19.1596 4.42628 19.4672 4.42628C19.7747 4.42628 20 4.1771 20 3.87007C20 1.73591 18.3548 0 16.1299 0Z" fill="currentColor"/>
</svg>
