<svg width="16" height="16" viewBox="0 0 16 16" fill="none" xmlns="http://www.w3.org/2000/svg">
<path d="M14.8435 10.0493C11.4827 12.4036 5.92711 9.83779 6.67688 6.15591C7.33422 2.92799 10.8631 3.8557 11.6658 4.29131C12.4684 4.72691 11.9827 2.41318 10.1213 1.71872C7.6 0.777969 4.51377 0.97742 3.53822 5.70292C2.87155 8.93229 4.17733 13.4598 9.19111 13.5202C14.2049 13.5805 14.8435 10.0493 14.8435 10.0493Z" fill="#226699"/>
<path d="M15.9947 10.7809C15.9947 9.74457 14.7707 9.65378 14.2169 10.2405C12.8862 11.6502 10.9271 12.1781 8.30667 11.6222C3.75112 10.6563 3.71067 4.85439 6.82534 3.19938C8.51023 2.30402 10.5093 3.36406 11.2693 3.99863C11.9307 4.55062 13.1956 5.28323 13.1293 4.3618C12.988 2.40012 9.44978 -1.80091 4.70889 0.855221C-0.0315501 3.51135 5.44708e-06 9.506 5.44708e-06 10.5926V14.0939C5.44708e-06 15.1607 0.806227 16 1.788 16H14.2324C15.2142 16 16 15.1607 16 14.0939C16 14.0939 15.9982 10.7838 15.9947 10.7809Z" fill="#55ACEE"/>
</svg>
